<?xml version="1.0" standalone="no"?>
<!DOCTYPE svg PUBLIC "-//W3C//DTD SVG 20010904//EN"
 "http://www.w3.org/TR/2001/REC-SVG-20010904/DTD/svg10.dtd">
<svg version="1.0" xmlns="http://www.w3.org/2000/svg"
 width="220.000000pt" height="213.000000pt" viewBox="0 0 220.000000 213.000000"
 preserveAspectRatio="xMidYMid meet">
<metadata>
Created by potrace 1.15, written by Peter Selinger 2001-2017
</metadata>
<g transform="translate(0.000000,213.000000) scale(0.100000,-0.100000)"
fill="#000000" stroke="none">
<path d="M1002 1929 c-97 -48 -141 -153 -111 -264 16 -57 95 -133 149 -141
l40 -7 0 -156 0 -156 -52 -19 c-50 -18 -94 -52 -115 -90 -10 -17 -16 -16 -140
25 l-130 42 5 46 c12 131 -83 240 -211 241 -167 1 -273 -171 -197 -320 67
-131 243 -155 350 -48 l42 42 128 -42 128 -43 -5 -37 c-7 -55 13 -118 53 -162
23 -25 33 -44 28 -52 -27 -43 -147 -203 -152 -203 -4 1 -33 9 -64 19 -170 52
-323 -98 -274 -268 56 -192 323 -212 407 -31 27 58 24 131 -6 191 -14 27 -23
55 -20 62 3 8 39 60 80 117 l75 103 43 -10 c40 -9 84 -7 117 6 12 5 38 -25 99
-109 l83 -115 -26 -52 c-91 -182 69 -365 266 -306 87 26 158 140 144 230 -17
104 -88 175 -191 192 -36 6 -89 -4 -146 -28 -12 -5 -35 19 -92 99 -43 58 -77
109 -77 112 0 3 16 23 34 44 39 43 59 101 54 162 l-3 41 115 38 c63 20 122 37
130 38 9 0 34 -18 55 -40 26 -26 58 -46 92 -57 165 -52 327 116 269 278 -62
173 -292 201 -393 48 -22 -34 -28 -54 -30 -113 l-2 -71 -128 -42 c-117 -40
-128 -42 -137 -25 -21 37 -64 71 -114 88 l-52 19 2 155 3 154 39 9 c80 19 156
121 156 211 0 158 -175 266 -318 195z m-10 -219 c10 -11 25 -20 32 -20 7 0 26
-12 42 -27 47 -44 70 -61 59 -44 -6 11 -4 13 9 8 10 -4 23 -7 29 -7 7 0 4 -5
-5 -11 -10 -5 -18 -15 -18 -21 0 -9 3 -9 12 0 7 7 19 12 27 12 36 0 -17 -31
-62 -36 -62 -8 -124 23 -160 79 -34 52 -37 98 -6 92 12 -3 30 -14 41 -25z
m-682 -470 c7 10 8 4 4 -20 -4 -24 -3 -31 4 -21 7 10 14 11 31 2 11 -7 21 -16
21 -21 0 -6 7 -10 15 -10 8 0 15 -3 15 -7 0 -15 70 -55 85 -49 9 3 15 0 15
-10 0 -9 -5 -12 -12 -8 -10 6 -10 4 0 -8 10 -13 10 -17 -4 -22 -47 -18 -132 4
-174 45 -31 31 -32 35 -34 107 -1 37 1 40 12 25 11 -16 14 -16 22 -3z m1354
-34 c21 -9 49 -30 63 -47 14 -16 28 -27 32 -25 9 6 71 -24 71 -34 0 -5 10 -6
23 -3 14 3 10 -2 -13 -15 -21 -12 -37 -16 -41 -10 -4 7 -9 6 -13 -1 -9 -14
-48 -14 -83 1 -35 15 -92 75 -99 105 -7 25 2 57 14 51 4 -2 24 -12 46 -22z
m-705 -239 c1 17 71 -25 71 -43 0 -8 3 -13 8 -12 6 2 98 -38 111 -48 2 -2 -2
-10 -9 -19 -7 -9 -10 -18 -6 -22 3 -4 12 2 19 12 12 15 14 15 14 1 0 -20 -20
-26 -84 -21 -83 5 -131 50 -147 138 -9 46 6 76 15 32 4 -16 7 -25 8 -18z
m-403 -579 c-3 -18 -3 -28 0 -22 7 17 42 5 49 -16 3 -10 19 -22 36 -25 16 -4
39 -17 50 -28 11 -12 23 -22 27 -22 42 -3 64 -35 24 -35 -15 0 -15 2 -2 10 10
7 11 10 2 10 -7 0 -15 -7 -18 -15 -17 -42 -109 -22 -165 37 -21 23 -39 46 -39
52 0 6 5 4 10 -4 6 -9 10 -10 10 -3 0 7 -6 16 -12 20 -7 4 -13 20 -13 35 -1
22 2 25 17 17 14 -7 18 -6 18 6 0 8 3 15 6 15 3 0 3 -15 0 -32z m832 8 c7 -4
11 -14 8 -22 -3 -8 0 -11 8 -8 7 3 16 -2 20 -11 3 -9 10 -14 15 -11 11 7 81
-32 81 -44 0 -5 -6 -11 -12 -13 -7 -3 1 -6 17 -6 37 -2 71 -20 40 -22 -16 -1
-16 -2 5 -8 23 -7 22 -9 -18 -20 -94 -26 -202 52 -202 145 0 32 10 38 38 20z"/>
</g>
</svg>
